<svg xmlns="http://www.w3.org/2000/svg" xmlns:xlink="http://www.w3.org/1999/xlink" width="500" zoomAndPan="magnify" viewBox="0 0 375 374.999991" height="500" preserveAspectRatio="xMidYMid meet" version="1.0"><defs><clipPath id="3599e28c18"><path d="M 52.839844 151 L 307 151 L 307 272 L 52.839844 272 Z M 52.839844 151 " clip-rule="nonzero"/></clipPath></defs><path fill="#dabbfa" d="M 275.765625 176.535156 C 257.3125 194.820312 225.171875 203.824219 209.039062 207.375 C 230.261719 197.605469 253.964844 180.605469 273.566406 151.277344 C 273.566406 151.273438 280.679688 159.335938 275.765625 176.535156 Z M 275.765625 176.535156 " fill-opacity="1" fill-rule="nonzero"/><g clip-path="url(#3599e28c18)"><path fill="#dabbfa" d="M 52.839844 243.179688 C 52.839844 243.179688 73.363281 188.03125 117.820312 181.621094 C 162.28125 175.210938 169.972656 193.589844 219.992188 175.636719 C 219.992188 175.636719 228.539062 202.566406 175.105469 209.40625 C 175.105469 209.40625 169.546875 220.089844 186.222656 220.089844 C 202.894531 220.089844 261.886719 212.644531 302.925781 151.265625 C 302.925781 151.265625 322.164062 173.066406 275.566406 221.371094 C 228.972656 269.675781 169.976562 294.480469 52.839844 243.179688 Z M 52.839844 243.179688 " fill-opacity="1" fill-rule="nonzero"/></g><path fill="#e24065" d="M 233.226562 88.988281 C 224.746094 80.507812 211 80.507812 202.519531 88.988281 L 191.089844 100.414062 L 179.667969 88.988281 C 171.183594 80.507812 157.4375 80.507812 148.960938 88.988281 C 144.71875 93.230469 142.605469 98.78125 142.605469 104.339844 C 142.605469 109.898438 144.726562 115.453125 148.960938 119.695312 L 191.097656 161.832031 L 191.101562 161.832031 L 233.238281 119.695312 C 241.707031 111.214844 241.707031 97.464844 233.226562 88.988281 Z M 206.617188 127.976562 L 196.835938 127.976562 L 196.835938 137.757812 L 185.332031 137.757812 L 185.332031 127.976562 L 175.558594 127.976562 L 175.558594 116.476562 L 185.332031 116.476562 L 185.332031 106.703125 L 196.835938 106.703125 L 196.835938 116.480469 L 206.617188 116.480469 Z M 206.617188 127.976562 " fill-opacity="1" fill-rule="nonzero"/></svg>